<?xml version="1.0" standalone="no"?>
<!DOCTYPE svg PUBLIC "-//W3C//DTD SVG 20010904//EN"
 "http://www.w3.org/TR/2001/REC-SVG-20010904/DTD/svg10.dtd">
<svg version="1.0" xmlns="http://www.w3.org/2000/svg"
 width="1024.000000pt" height="1024.000000pt" viewBox="147 136 682 682"
 preserveAspectRatio="xMidYMid meet">

<g transform="translate(0.000000,1024.000000) scale(0.100000,-0.100000)"
fill="#000000" stroke="none">
<path d="M5838 8294 c-396 -251 -883 -494 -1349 -672 -177 -68 -647 -228 -705
-240 l-39 -8 -5 -304 -5 -305 -189 -3 c-123 -2 -194 -6 -203 -14 -9 -7 -13
-26 -11 -52 4 -61 22 -66 224 -66 147 0 173 -2 178 -16 10 -25 7 -212 -3 -219
-5 -3 -241 -6 -523 -6 -485 0 -587 -4 -609 -26 -5 -5 -11 -23 -15 -40 -5 -24
-1 -36 15 -52 21 -21 25 -21 559 -21 470 0 540 -2 560 -16 21 -14 22 -22 22
-145 l0 -129 -615 0 c-432 0 -621 -3 -639 -11 -22 -11 -36 -35 -36 -66 0 -7 9
-22 20 -33 20 -20 33 -20 619 -20 349 0 610 -4 624 -9 24 -10 25 -12 29 -143
2 -73 0 -139 -5 -145 -7 -10 -68 -13 -243 -13 -229 0 -233 0 -248 -22 -21 -30
-20 -50 4 -76 20 -21 27 -22 260 -22 l239 0 5 -32 c16 -107 49 -294 53 -305 4
-10 -74 -13 -396 -13 -388 0 -402 -1 -421 -20 -23 -23 -26 -58 -6 -86 14 -18
33 -19 435 -24 l422 -5 44 -130 c25 -71 46 -134 47 -140 2 -7 -222 -12 -650
-15 -639 -5 -654 -5 -668 -25 -18 -24 -11 -75 13 -92 11 -9 58 -13 137 -14 67
0 267 -2 446 -4 179 -2 426 -4 550 -4 l225 -1 67 -130 66 -130 -399 0 c-386 0
-400 -1 -419 -20 -23 -23 -26 -58 -6 -86 14 -18 33 -19 457 -24 l442 -5 90
-125 c131 -183 254 -324 443 -510 328 -321 708 -597 1134 -823 l126 -66 104
47 c279 128 608 331 855 528 140 112 408 379 512 509 388 488 634 1038 717
1607 30 202 36 396 36 1249 l0 856 -332 110 c-713 237 -1151 440 -1818 842
-47 28 -89 51 -95 50 -5 0 -63 -34 -127 -75z m217 -365 c39 -26 142 -88 230
-139 407 -235 822 -414 1380 -597 110 -36 204 -69 209 -74 13 -11 19 -1457 6
-1629 -43 -613 -295 -1190 -732 -1681 -258 -289 -606 -549 -1005 -752 l-163
-82 -72 37 c-221 113 -530 322 -733 496 -520 445 -896 1023 -1031 1587 -58
245 -57 228 -61 1168 -3 704 -1 868 9 871 110 32 474 153 608 203 450 167 855
366 1190 586 47 31 87 55 90 54 3 -1 37 -23 75 -48z m-1678 -384 c0 -19 -23
-27 -55 -18 l-27 6 35 13 c46 16 47 16 47 -1z m-94 -48 c-3 -5 -11 -6 -18 -3
-8 3 -15 -5 -17 -19 -6 -30 6 -50 23 -39 10 6 10 3 -1 -11 -14 -17 -14 -18 8
-6 18 10 22 9 22 -4 0 -9 -4 -14 -8 -11 -4 2 -14 1 -22 -5 -13 -7 -12 -9 2 -9
9 0 20 -4 23 -10 10 -15 -28 1 -44 19 -13 15 -13 15 -8 -1 3 -9 1 -19 -6 -22
-7 -2 -3 -5 8 -6 28 -1 61 -26 43 -33 -7 -2 -22 0 -33 6 -18 9 -19 9 -6 -6 12
-16 8 -22 -12 -18 -5 1 -5 -4 -2 -10 5 -8 10 -8 18 0 14 14 40 14 32 0 -4 -6
-17 -15 -29 -20 -19 -8 -19 -9 -1 -6 24 3 54 -30 48 -54 -4 -15 -50 -33 -80
-32 -7 0 -13 -4 -13 -10 0 -6 -3 -7 -7 -4 -3 4 -11 3 -17 -2 -6 -4 -33 -14
-59 -21 -36 -10 -51 -20 -58 -37 -5 -13 -10 -219 -11 -456 -1 -238 -4 -357 -5
-264 -2 92 -8 167 -13 167 -5 0 -8 -12 -7 -27 1 -18 -3 -27 -10 -26 -7 2 -13
-3 -13 -10 0 -8 -7 -14 -15 -14 -8 0 -11 5 -8 10 4 6 -1 8 -11 4 -9 -4 -15 -3
-12 2 3 5 -1 11 -9 15 -8 3 -15 13 -15 21 0 9 -5 13 -11 10 -7 -5 -4 -14 7
-26 9 -10 14 -19 9 -19 -4 0 -2 -6 4 -14 10 -12 8 -13 -8 -9 -12 3 -21 1 -21
-4 0 -5 -9 -9 -20 -10 -13 -1 -18 3 -14 10 3 7 0 5 -8 -3 -7 -9 -21 -14 -30
-12 -10 2 -18 -1 -18 -6 0 -5 11 -8 25 -7 14 2 25 -1 25 -6 0 -5 -5 -9 -11 -9
-5 0 -7 -6 -3 -12 6 -10 5 -10 -7 -1 -9 7 -20 9 -29 3 -12 -7 -11 -10 4 -16
18 -7 18 -7 0 -17 -27 -16 -50 -15 -52 0 -1 7 -3 20 -4 28 -1 8 -5 12 -9 9 -8
-4 -5 -28 6 -65 4 -10 2 -19 -4 -19 -5 0 -12 -8 -15 -17 -5 -15 -16 -18 -60
-16 -48 2 -54 0 -50 -15 5 -14 4 -14 -6 1 -9 14 -9 22 -1 30 6 6 11 15 11 19
0 13 -20 9 -36 -6 -16 -16 -19 -30 -5 -22 5 3 8 -7 7 -24 -2 -24 2 -30 23 -33
15 -2 -202 -5 -481 -6 -361 -1 -514 2 -532 10 -42 19 -41 74 1 90 15 5 250 9
561 9 472 -1 537 1 551 15 21 21 18 222 -4 244 -10 11 -55 15 -190 17 -115 2
-182 7 -191 15 -16 13 -19 59 -3 59 5 0 8 4 5 9 -11 17 26 21 197 21 95 0 178
4 185 9 10 6 13 70 12 302 l0 294 232 76 c208 68 317 92 301 66z m109 -224 c9
1 16 -2 15 -8 -1 -5 -13 -9 -27 -7 -17 2 -21 0 -12 -6 9 -6 5 -12 -14 -21 -28
-13 -37 -10 -40 15 -2 10 3 14 12 10 9 -3 12 -1 9 4 -3 6 -16 10 -28 10 -16 0
-18 3 -8 9 7 5 27 5 45 0 17 -4 39 -7 48 -6z m-437 -812 c-9 -8 -36 -10 -30
-2 2 4 11 8 20 8 8 0 13 -3 10 -6z m-95 -81 c0 -5 -5 -10 -11 -10 -5 0 -7 5
-4 10 3 6 8 10 11 10 2 0 4 -4 4 -10z m-142 -117 c-10 -2 -26 -2 -35 0 -10 3
-2 5 17 5 19 0 27 -2 18 -5z m39 -90 c-3 -10 -5 -2 -5 17 0 19 2 27 5 18 2
-10 2 -26 0 -35z m-1189 -240 c-10 -2 -26 -2 -35 0 -10 3 -2 5 17 5 19 0 27
-2 18 -5z m325 0 c-57 -2 -149 -2 -205 0 -57 1 -11 3 102 3 113 0 159 -2 103
-3z m200 0 c-18 -2 -48 -2 -65 0 -18 2 -4 4 32 4 36 0 50 -2 33 -4z m110 0
c-13 -2 -35 -2 -50 0 -16 2 -5 4 22 4 28 0 40 -2 28 -4z m60 0 c-7 -2 -19 -2
-25 0 -7 3 -2 5 12 5 14 0 19 -2 13 -5z"/>
<path d="M5930 7747 c-181 -127 -677 -384 -959 -497 -243 -97 -501 -187 -666
-232 l-50 -14 0 -799 c1 -872 0 -857 61 -1099 167 -658 687 -1314 1409 -1778
55 -35 123 -77 150 -92 28 -16 64 -37 81 -47 l32 -19 133 68 c476 243 898 617
1187 1052 154 231 293 548 353 805 54 232 52 182 56 1081 l4 841 -103 28
c-505 135 -1091 393 -1549 681 -47 30 -88 54 -90 53 -2 0 -24 -15 -49 -32z
m-10 -912 l0 -405 95 0 94 0 3 87 3 88 40 -3 c146 -12 321 -80 473 -185 89
-61 222 -199 287 -298 97 -146 172 -353 190 -521 l7 -67 -73 -3 -74 -3 -3 -62
-3 -63 76 0 76 0 -7 -47 c-3 -27 -17 -89 -29 -139 -79 -316 -301 -590 -589
-729 -98 -47 -239 -92 -323 -102 l-53 -6 0 97 0 96 -95 0 -95 0 0 -405 0 -406
-87 3 -88 3 -3 111 -3 112 -47 12 c-92 23 -257 91 -354 145 -403 229 -693 605
-808 1050 l-29 110 -43 -3 c-76 -5 -88 2 -88 53 l0 45 190 0 c217 0 189 15
210 -115 37 -230 164 -475 347 -665 107 -112 230 -204 358 -267 96 -47 268
-108 335 -119 l41 -7 -3 73 -3 72 -100 30 c-293 87 -531 270 -686 529 -69 115
-134 299 -153 432 l-5 37 80 0 80 0 -3 63 -3 62 -75 1 -75 2 2 73 c3 96 41
245 92 359 100 226 297 432 521 545 66 33 198 79 274 95 l56 11 0 70 c0 80 4
78 -117 53 -167 -34 -372 -134 -514 -250 -263 -215 -422 -508 -460 -848 l-12
-106 -31 -5 c-17 -3 -103 -4 -191 -3 l-160 3 -3 47 -3 47 58 3 c66 3 58 -12
88 166 42 250 172 517 358 732 190 221 512 412 800 475 l77 17 0 107 c0 59 3
111 7 114 3 4 44 7 90 7 l83 0 0 -405z m350 285 l0 -120 25 0 c44 0 296 -89
383 -135 324 -172 548 -400 697 -710 77 -161 155 -416 155 -510 0 -24 3 -25
55 -25 l55 0 0 -45 0 -45 -190 0 -190 0 0 43 c0 132 -57 344 -135 500 -180
360 -573 641 -942 674 l-73 6 0 237 c0 130 3 240 7 243 3 4 39 7 80 7 l73 0 0
-120z m-1913 -116 c-3 -3 -12 -4 -19 -1 -8 3 -5 6 6 6 11 1 17 -2 13 -5z m-41
-16 c11 -17 12 -48 3 -54 -5 -2 -6 -10 -3 -18 3 -7 -2 -13 -10 -13 -8 0 -13 4
-10 9 3 4 1 8 -4 8 -5 0 -9 -34 -9 -75 0 -41 -3 -78 -6 -82 -4 -3 -7 45 -7
109 0 63 3 118 7 121 10 11 31 8 39 -5z m4 -108 c0 -5 -4 -10 -10 -10 -5 0
-10 5 -10 10 0 6 5 10 10 10 6 0 10 -4 10 -10z m-1 -70 c0 -8 -5 -4 -13 10 -7
14 -10 29 -8 34 6 11 20 -20 21 -44z m-42 -92 c-3 -7 -5 -2 -5 12 0 14 2 19 5
13 2 -7 2 -19 0 -25z m0 -50 c-3 -7 -5 -2 -5 12 0 14 2 19 5 13 2 -7 2 -19 0
-25z m0 -60 c-3 -7 -5 -2 -5 12 0 14 2 19 5 13 2 -7 2 -19 0 -25z m3351 -1255
l-3 -48 -69 0 -69 0 -27 -110 c-33 -132 -62 -210 -124 -334 -215 -426 -574
-731 -999 -846 l-67 -18 0 -119 0 -119 -77 3 -78 3 -3 232 -2 232 32 5 c18 3
69 10 113 16 44 7 113 23 154 36 306 102 561 325 711 624 69 136 102 246 136
458 l5 32 185 0 185 0 -3 -47z"/>
<path d="M5830 6321 c-172 -38 -301 -111 -417 -235 -75 -81 -122 -154 -159
-244 -49 -123 -59 -178 -59 -342 0 -164 10 -219 59 -342 42 -102 88 -170 181
-263 129 -129 235 -187 404 -221 112 -22 336 -15 427 14 176 56 315 161 423
320 90 133 130 261 138 447 10 229 -50 415 -192 596 -88 112 -259 222 -410
264 -94 26 -291 29 -395 6z m140 -301 c0 -238 9 -219 -91 -200 -104 20 -159
40 -159 58 0 9 23 63 50 118 51 103 155 234 186 234 12 0 14 -36 14 -210z
m140 184 c17 -15 51 -54 75 -88 47 -66 131 -233 122 -242 -12 -12 -146 -52
-194 -58 l-53 -7 0 211 c0 122 4 210 9 210 5 0 23 -12 41 -26z m-300 11 c0 -3
-20 -30 -45 -60 -42 -52 -125 -207 -125 -233 0 -21 -21 -13 -98 35 l-75 47 66
63 c62 58 143 108 227 139 40 14 50 16 50 9z m506 -35 c86 -43 228 -154 221
-173 -2 -7 -34 -31 -72 -54 l-68 -42 -46 92 c-25 51 -68 120 -94 155 -27 34
-42 62 -35 62 7 0 49 -18 94 -40z m-740 -343 l32 -16 -15 -50 c-8 -28 -20 -94
-27 -148 l-12 -98 -132 -3 -132 -3 0 49 c0 93 68 301 116 353 14 16 20 14 77
-26 34 -23 76 -50 93 -58z m1080 -1 c44 -94 74 -205 74 -277 l0 -39 -129 0
-128 0 -6 83 c-4 45 -16 114 -26 152 -13 45 -16 71 -9 74 5 2 44 27 86 55 43
29 81 50 86 48 5 -3 28 -46 52 -96z m-290 -154 c7 -43 13 -96 14 -119 l0 -43
-160 0 -160 0 0 104 0 103 69 6 c37 3 99 16 137 30 82 28 80 29 100 -81z
m-566 68 c41 -10 97 -21 123 -25 l48 -6 -3 -97 -3 -97 -157 -3 -158 -3 0 28
c0 36 29 213 36 225 3 5 13 6 23 2 9 -4 50 -15 91 -24z m-235 -367 c4 -27 15
-83 26 -126 11 -44 21 -83 22 -89 1 -6 -40 -35 -91 -65 -71 -41 -97 -51 -107
-43 -41 34 -125 264 -125 342 l0 28 134 0 135 0 6 -47z m403 -50 l-3 -98 -71
-6 c-39 -4 -97 -14 -129 -24 -44 -12 -60 -13 -65 -5 -9 14 -36 137 -44 193
l-5 37 160 0 160 0 -3 -97z m407 55 c-11 -72 -35 -172 -44 -187 -7 -11 -23 -9
-92 8 -45 12 -94 21 -108 21 -69 1 -71 4 -71 106 l0 94 161 0 161 0 -7 -42z
m350 -10 c-15 -108 -83 -287 -122 -319 -8 -7 -37 5 -95 37 -46 27 -85 49 -87
51 -3 2 5 45 17 96 12 50 24 113 28 140 l6 47 130 0 130 0 -7 -52z m-755 -413
c0 -133 -3 -185 -12 -185 -14 0 -78 67 -117 124 -33 48 -101 178 -101 194 0
14 133 47 203 51 l27 1 0 -185z m263 155 l66 -21 -25 -57 c-14 -31 -41 -82
-61 -112 -39 -59 -130 -160 -144 -160 -5 0 -9 86 -9 191 l0 192 54 -7 c29 -3
83 -15 119 -26z m-544 -127 c23 -43 65 -111 95 -150 30 -40 51 -73 46 -73 -5
0 -39 11 -76 25 -82 31 -163 80 -229 138 l-49 44 79 46 c44 26 83 47 87 47 4
0 25 -35 47 -77z m788 21 c42 -23 60 -39 57 -49 -21 -55 -304 -218 -331 -191
-3 3 11 24 31 46 43 47 95 127 128 194 25 52 22 52 115 0z"/>
<path d="M4282 6948 c5 -15 28 -18 29 -3 0 6 -7 12 -17 13 -10 3 -15 -1 -12
-10z"/>
<path d="M3985 6580 c6 -10 4 -12 -8 -7 -21 8 -22 3 -3 -12 10 -9 15 -8 19 3
4 9 1 18 -5 22 -7 5 -8 2 -3 -6z"/>
<path d="M3960 6544 c0 -15 38 -35 45 -24 4 6 11 8 16 5 5 -4 9 -2 9 3 0 6 -7
13 -16 16 -8 3 -12 2 -9 -4 9 -14 -19 -12 -33 2 -7 7 -12 8 -12 2z"/>
<path d="M3795 6449 c-4 -6 -5 -12 -2 -15 2 -3 7 2 10 11 7 17 1 20 -8 4z"/>
<path d="M3796 6412 c-3 -4 4 -9 15 -9 23 -2 25 3 4 10 -8 4 -16 3 -19 -1z"/>
<path d="M3747 6383 c-11 -11 -8 -20 7 -20 8 0 12 6 9 14 -6 15 -7 15 -16 6z"/>
<path d="M3278 6353 c7 -3 16 -2 19 1 4 3 -2 6 -13 5 -11 0 -14 -3 -6 -6z"/>
<path d="M3587 6298 c-4 -13 -97 -19 -97 -6 0 3 -16 2 -35 -3 -19 -6 -41 -7
-48 -3 -6 4 -8 3 -4 -2 4 -4 48 -9 97 -11 80 -2 91 0 100 17 6 12 7 20 1 20
-5 0 -11 -6 -14 -12z"/>
<path d="M2966 6744 c-9 -8 -16 -31 -16 -49 0 -18 7 -41 16 -49 22 -23 96 -21
117 2 22 24 22 76 0 93 -15 11 -16 11 -5 -1 13 -15 16 -48 6 -74 -5 -12 -20
-16 -60 -16 -58 0 -59 2 -54 60 3 32 3 33 45 35 51 3 56 15 7 15 -24 0 -47 -7
-56 -16z"/>
<path d="M2262 6368 c-15 -15 -16 -63 -2 -89 8 -14 21 -19 53 -19 24 0 48 5
55 12 17 17 15 74 -4 92 -18 19 -85 21 -102 4z m104 -35 c8 -32 -6 -57 -34
-61 -28 -4 -65 16 -58 33 3 8 0 15 -5 17 -6 2 -7 11 -4 21 5 12 19 17 51 17
39 0 44 -3 50 -27z"/>
<path d="M2168 5925 c-8 -18 -9 -35 -2 -53 8 -22 16 -28 47 -30 48 -4 67 11
67 52 0 42 -16 56 -62 56 -31 0 -41 -5 -50 -25z m50 -2 c-21 -5 -23 -19 -5
-26 6 -3 2 -6 -10 -6 -13 -1 -22 4 -20 12 3 16 18 27 37 26 11 -1 10 -3 -2 -6z
m46 -42 c3 -5 -1 -11 -9 -14 -9 -4 -12 -1 -8 9 6 16 10 17 17 5z"/>
<path d="M1848 5802 c-21 -4 -33 -55 -18 -81 8 -16 21 -21 49 -21 47 0 63 18
59 62 -3 29 -7 33 -38 38 -19 3 -43 4 -52 2z"/>
<path d="M2100 5523 c-43 -16 -54 -82 -18 -107 20 -14 83 -16 485 -16 450 0
464 1 483 20 23 23 26 58 6 86 -14 18 -32 19 -478 21 -255 1 -470 -1 -478 -4z
m947 -55 c-3 -7 -5 -2 -5 12 0 14 2 19 5 13 2 -7 2 -19 0 -25z"/>
<path d="M1586 5478 c-41 -59 -7 -88 102 -88 86 0 102 9 102 59 0 39 -26 51
-110 51 -70 0 -81 -2 -94 -22z"/>
<path d="M2635 5036 c-23 -17 -26 -93 -4 -107 8 -5 40 -9 71 -9 47 0 59 4 68
19 16 30 12 76 -8 94 -23 21 -101 23 -127 3z"/>
<path d="M2258 4610 c-21 -13 -25 -79 -6 -98 7 -7 30 -12 53 -12 23 0 46 5 53
12 14 14 16 67 3 86 -11 18 -81 25 -103 12z"/>
<path d="M2960 4201 c-14 -26 -13 -74 2 -89 7 -7 38 -12 69 -12 61 0 69 7 69
56 0 50 -16 64 -75 64 -43 0 -56 -4 -65 -19z"/>
</g>
</svg>
